<svg xmlns="http://www.w3.org/2000/svg" viewBox="0 0 500 500"><g fill="none" fill-rule="evenodd"><path fill="#FC6D26" d="M495.2 280.2l-27.6-84.8-54.6-168c-2.8-8.7-15-8.7-17.8 0l-54.7 168H159.2l-54.6-168c-2.8-8.7-15-8.7-18 0L32 195.4 4.7 280.2c-2.5 7.8.3 16.2 7 21L250 474.5l238.4-173.3c6.6-4.8 9.3-13.2 6.8-21"/><path fill="#E24329" d="M250 474.5l90.5-279H159.2l90.7 279z"/><path fill="#FC6D26" d="M250 474.5l-90.8-279h-127l217.7 279z"/><path fill="#FCA326" d="M32 195.4L4.6 280.2c-2.5 7.8.3 16.2 7 21L250 474.5l-218-279z"/><path fill="#E24329" d="M32 195.4h127.2l-54.6-168c-2.8-8.7-15-8.7-18 0L32 195.4z"/><path fill="#FC6D26" d="M250 474.5l90.5-279h127L250 474.5z"/><path fill="#FCA326" d="M467.6 195.4l27.6 84.8c2.5 7.8-.2 16.2-6.8 21L250 474.5l217.6-279z"/><path fill="#E24329" d="M467.6 195.4h-127l54.6-168c2.8-8.7 15-8.7 17.8 0l54.6 168z"/></g></svg>
