<svg xmlns="http://www.w3.org/2000/svg" viewBox="0 0 127.51 105.19"><path fill="#c8daea" d="M31 60l14 38.7s1.8 3.6 3.7 3.6 29.8-29 29.8-29l31-60-78 36.6z"/><path fill="#a9c6d8" d="M49.7 70L47 98.3s-1 8.8 7.6 0 17-15.5 17-15.5"/><path fill="#fff" d="M31.4 61.3L2.6 52S-1 50.4.2 47.3c.3-.7.7-1.2 2-2.2C8.8 41 120.5 1 120.5 1s3-1 5-.4a2.7 2.7 0 0 1 1.8 2 9.6 9.6 0 0 1 .3 2.6c0 .6 0 1.3-.2 2.4-.6 11-21 93-21 93s-1.2 4.7-5.5 5a8 8 0 0 1-6-2.3C86 96 57 76 50 71.6a1.2 1.2 0 0 1-.5-1c0-.3.4-1 .4-1s51.4-45.8 53-50.6c0-.4-.5-.6-1-.5-3.5 1.3-63 38.8-69.4 43a3 3 0 0 1-1.5 0z"/></svg>
