<svg xmlns="http://www.w3.org/2000/svg" viewBox="0 0 308.44 180.21"><path fill="#fff" d="M135.5 67c0 1-.7 1.6-.4 2.5a.8.8 0 0 0 0 .8 57.3 57.3 0 0 1-9 22v.7l-6 7a5.7 5.7 0 0 0-2.5 2c-3.6 2.3-7 4.8-11 6.4-1.7.6-.5 1.3 0 1.8l12 16c2.5 3 4.4 6.2 7 8.6a.3.3 0 0 0 .5.3c1.4 3 3 5 4.6 7l20 26c4 6 3.7 9-2 12l-3 1H3.4c-.3-1-1.2-1-1.7-1.5l-.8-1a15.6 15.6 0 0 1-1-5V12a40 40 0 0 1 0-8V3c0-.6 1-1 1-1.8A11.4 11.4 0 0 1 8 0h65a87.8 87.8 0 0 1 19 2.3 67.4 67.4 0 0 1 23 10.3 9.2 9.2 0 0 0 3 2.5 10.8 10.8 0 0 0 3 3l.2 1c11.5 13 15 28.8 14 45 0 1-1 3 0 4zm173 67.7l-.8 3.4c-1.4 5-2.8 10-5.2 15-3.2 6-7.8 11-12.8 15l-9.2 6c-11.2 5.3-23 7.5-35.4 7.6-21 .3-42 0-64 0-3 0-6 .5-10-1l-1-1a1.2 1.2 0 0 0 0-1.3 15.5 15.5 0 0 1 0-4.2V7.6c0-5 2.5-7.4 7.6-7.4h62c15.5 0 30 3 42 14 0 1 0 1 .4 1a.5.5 0 0 0 .5 1c9 11 12 24 11 38 0 3.7-1 7-1 10.6v.7c-1.7 4.4-3 9-5.5 13a7.6 7.6 0 0 0-2 3c-2 1-2 2 0 3a31.3 31.3 0 0 1 5 3c11 7.4 16 18.3 18 31 1 6 .7 12 .7 18z" /></svg>
